<svg xmlns="http://www.w3.org/2000/svg" width="400" height="120"><rect width="400" height="60" fill="#e8e8ea"/><rect y="60" width="400" height="60" fill="#1c1c1e"/><g transform="translate(20 12) scale(2)"><rect x="0.5" y="11" width="6" height="1.6" rx="0.8" fill="#000"/><rect x="1.8" y="8.2" width="4.5" height="1.5" rx="0.75" fill="#000"/><text x="9.5" y="16.2" text-anchor="middle" font-family="Impact, Arial Black, sans-serif" font-weight="900" font-size="17" transform="skewX(-10) translate(1.6 0)" fill="#000">A</text></g><g transform="translate(115 12) scale(2)"><rect x="1" y="1" width="16" height="16" rx="4" fill="#000"/><text x="9.5" y="16.2" text-anchor="middle" font-family="Impact, Arial Black, sans-serif" font-weight="900" font-size="17" transform="skewX(-10) translate(1.6 0)" fill="#fff">A</text></g><g transform="translate(210 12) scale(2)"><text x="9.5" y="16.2" text-anchor="middle" font-family="Impact, Arial Black, sans-serif" font-weight="900" font-size="17" transform="skewX(-10) translate(1.6 0)" fill="none" stroke="#000" stroke-width="1.3" paint-order="stroke">A</text></g><g transform="translate(305 12) scale(2)"><text x="9.5" y="16.2" text-anchor="middle" font-family="Impact, Arial Black, sans-serif" font-weight="900" font-size="17" transform="skewX(-10) translate(1.6 0)" fill="#000">A</text><circle cx="15" cy="4" r="3" fill="#000"/><rect x="14.4" y="2.2" width="1.2" height="2.3" rx="0.6" fill="#fff"/><circle cx="15" cy="5.5" r="0.65" fill="#fff"/></g><g transform="translate(20 72) scale(2)"><rect x="0.5" y="11" width="6" height="1.6" rx="0.8" fill="#fff"/><rect x="1.8" y="8.2" width="4.5" height="1.5" rx="0.75" fill="#fff"/><text x="9.5" y="16.2" text-anchor="middle" font-family="Impact, Arial Black, sans-serif" font-weight="900" font-size="17" transform="skewX(-10) translate(1.6 0)" fill="#fff">A</text></g><g transform="translate(115 72) scale(2)"><rect x="1" y="1" width="16" height="16" rx="4" fill="#fff"/><text x="9.5" y="16.2" text-anchor="middle" font-family="Impact, Arial Black, sans-serif" font-weight="900" font-size="17" transform="skewX(-10) translate(1.6 0)" fill="#000">A</text></g><g transform="translate(210 72) scale(2)"><text x="9.5" y="16.2" text-anchor="middle" font-family="Impact, Arial Black, sans-serif" font-weight="900" font-size="17" transform="skewX(-10) translate(1.6 0)" fill="none" stroke="#fff" stroke-width="1.3" paint-order="stroke">A</text></g><g transform="translate(305 72) scale(2)"><text x="9.5" y="16.2" text-anchor="middle" font-family="Impact, Arial Black, sans-serif" font-weight="900" font-size="17" transform="skewX(-10) translate(1.6 0)" fill="#fff">A</text><circle cx="15" cy="4" r="3" fill="#fff"/><rect x="14.4" y="2.2" width="1.2" height="2.3" rx="0.6" fill="#000"/><circle cx="15" cy="5.5" r="0.65" fill="#000"/></g></svg>